<svg width="1230" height="225" viewBox="0 0 1230 225" fill="none" xmlns="http://www.w3.org/2000/svg">
<rect y="117" width="720" height="1" rx="0.5" fill="white" fill-opacity="0.25"/>
<rect x="1047" y="117" width="183" height="1" rx="0.5" fill="white" fill-opacity="0.25"/>
<circle cx="883.5" cy="112.5" r="112.5" fill="url(#paint0_linear_275_164)"/>
<path d="M824.262 124.176C823.074 124.176 821.981 123.985 820.984 123.604C819.987 123.208 819.121 122.658 818.388 121.954C817.655 121.235 817.083 120.399 816.672 119.446C816.261 118.493 816.056 117.444 816.056 116.3C816.056 115.156 816.261 114.107 816.672 113.154C817.083 112.201 817.655 111.372 818.388 110.668C819.136 109.949 820.009 109.399 821.006 109.018C822.003 108.622 823.103 108.424 824.306 108.424C825.523 108.424 826.638 108.622 827.65 109.018C828.662 109.414 829.52 110.008 830.224 110.8L828.86 112.164C828.229 111.548 827.54 111.101 826.792 110.822C826.059 110.529 825.259 110.382 824.394 110.382C823.514 110.382 822.693 110.529 821.93 110.822C821.182 111.115 820.529 111.526 819.972 112.054C819.429 112.582 819.004 113.213 818.696 113.946C818.403 114.665 818.256 115.449 818.256 116.3C818.256 117.136 818.403 117.921 818.696 118.654C819.004 119.373 819.429 120.003 819.972 120.546C820.529 121.074 821.182 121.485 821.93 121.778C822.678 122.071 823.492 122.218 824.372 122.218C825.193 122.218 825.978 122.093 826.726 121.844C827.489 121.58 828.193 121.147 828.838 120.546L830.092 122.218C829.329 122.863 828.435 123.355 827.408 123.692C826.396 124.015 825.347 124.176 824.262 124.176ZM827.98 121.932V116.212H830.092V122.218L827.98 121.932ZM839.188 124.132C837.941 124.132 836.841 123.875 835.888 123.362C834.949 122.849 834.216 122.145 833.688 121.25C833.175 120.355 832.918 119.329 832.918 118.17C832.918 117.011 833.167 115.985 833.666 115.09C834.179 114.195 834.876 113.499 835.756 113C836.651 112.487 837.655 112.23 838.77 112.23C839.899 112.23 840.897 112.479 841.762 112.978C842.627 113.477 843.302 114.181 843.786 115.09C844.285 115.985 844.534 117.033 844.534 118.236C844.534 118.324 844.527 118.427 844.512 118.544C844.512 118.661 844.505 118.771 844.49 118.874H834.568V117.356H843.39L842.532 117.884C842.547 117.136 842.393 116.469 842.07 115.882C841.747 115.295 841.3 114.841 840.728 114.518C840.171 114.181 839.518 114.012 838.77 114.012C838.037 114.012 837.384 114.181 836.812 114.518C836.24 114.841 835.793 115.303 835.47 115.904C835.147 116.491 834.986 117.165 834.986 117.928V118.28C834.986 119.057 835.162 119.754 835.514 120.37C835.881 120.971 836.387 121.441 837.032 121.778C837.677 122.115 838.418 122.284 839.254 122.284C839.943 122.284 840.567 122.167 841.124 121.932C841.696 121.697 842.195 121.345 842.62 120.876L843.786 122.24C843.258 122.856 842.598 123.325 841.806 123.648C841.029 123.971 840.156 124.132 839.188 124.132ZM851.471 124.132C850.298 124.132 849.388 123.817 848.743 123.186C848.098 122.555 847.775 121.653 847.775 120.48V109.788H849.887V120.392C849.887 121.023 850.041 121.507 850.349 121.844C850.672 122.181 851.126 122.35 851.713 122.35C852.373 122.35 852.923 122.167 853.363 121.8L854.023 123.318C853.7 123.597 853.312 123.802 852.857 123.934C852.417 124.066 851.955 124.132 851.471 124.132ZM845.795 114.078V112.34H853.231V114.078H845.795ZM862.484 124V112.34H864.596V124H862.484ZM863.54 110.096C863.13 110.096 862.785 109.964 862.506 109.7C862.242 109.436 862.11 109.113 862.11 108.732C862.11 108.336 862.242 108.006 862.506 107.742C862.785 107.478 863.13 107.346 863.54 107.346C863.951 107.346 864.288 107.478 864.552 107.742C864.831 107.991 864.97 108.307 864.97 108.688C864.97 109.084 864.838 109.421 864.574 109.7C864.31 109.964 863.966 110.096 863.54 110.096ZM874.855 112.23C875.808 112.23 876.644 112.413 877.363 112.78C878.096 113.147 878.668 113.704 879.079 114.452C879.49 115.2 879.695 116.146 879.695 117.29V124H877.583V117.532C877.583 116.403 877.304 115.552 876.747 114.98C876.204 114.408 875.434 114.122 874.437 114.122C873.689 114.122 873.036 114.269 872.479 114.562C871.922 114.855 871.489 115.288 871.181 115.86C870.888 116.432 870.741 117.143 870.741 117.994V124H868.629V112.34H870.653V115.486L870.323 114.65C870.704 113.887 871.291 113.293 872.083 112.868C872.875 112.443 873.799 112.23 874.855 112.23ZM893.516 124.132C892.342 124.132 891.433 123.817 890.788 123.186C890.142 122.555 889.82 121.653 889.82 120.48V109.788H891.932V120.392C891.932 121.023 892.086 121.507 892.394 121.844C892.716 122.181 893.171 122.35 893.758 122.35C894.418 122.35 894.968 122.167 895.408 121.8L896.068 123.318C895.745 123.597 895.356 123.802 894.902 123.934C894.462 124.066 894 124.132 893.516 124.132ZM887.84 114.078V112.34H895.276V114.078H887.84ZM903.228 124.132C902.055 124.132 901.014 123.875 900.104 123.362C899.195 122.849 898.476 122.145 897.948 121.25C897.42 120.341 897.156 119.314 897.156 118.17C897.156 117.011 897.42 115.985 897.948 115.09C898.476 114.195 899.195 113.499 900.104 113C901.014 112.487 902.055 112.23 903.228 112.23C904.387 112.23 905.421 112.487 906.33 113C907.254 113.499 907.973 114.195 908.486 115.09C909.014 115.97 909.278 116.997 909.278 118.17C909.278 119.329 909.014 120.355 908.486 121.25C907.973 122.145 907.254 122.849 906.33 123.362C905.421 123.875 904.387 124.132 903.228 124.132ZM903.228 122.284C903.976 122.284 904.644 122.115 905.23 121.778C905.832 121.441 906.301 120.964 906.638 120.348C906.976 119.717 907.144 118.991 907.144 118.17C907.144 117.334 906.976 116.615 906.638 116.014C906.301 115.398 905.832 114.921 905.23 114.584C904.644 114.247 903.976 114.078 903.228 114.078C902.48 114.078 901.813 114.247 901.226 114.584C900.64 114.921 900.17 115.398 899.818 116.014C899.466 116.615 899.29 117.334 899.29 118.17C899.29 118.991 899.466 119.717 899.818 120.348C900.17 120.964 900.64 121.441 901.226 121.778C901.813 122.115 902.48 122.284 903.228 122.284ZM917.105 124.132C916.108 124.132 915.228 123.949 914.465 123.582C913.717 123.215 913.131 122.658 912.705 121.91C912.295 121.147 912.089 120.194 912.089 119.05V112.34H914.201V118.808C914.201 119.952 914.473 120.81 915.015 121.382C915.573 121.954 916.35 122.24 917.347 122.24C918.081 122.24 918.719 122.093 919.261 121.8C919.804 121.492 920.222 121.052 920.515 120.48C920.809 119.893 920.955 119.189 920.955 118.368V112.34H923.067V124H921.065V120.854L921.395 121.69C921.014 122.467 920.442 123.069 919.679 123.494C918.917 123.919 918.059 124.132 917.105 124.132ZM932.17 124.132C930.982 124.132 929.919 123.875 928.98 123.362C928.056 122.849 927.33 122.145 926.802 121.25C926.274 120.355 926.01 119.329 926.01 118.17C926.01 117.011 926.274 115.985 926.802 115.09C927.33 114.195 928.056 113.499 928.98 113C929.919 112.487 930.982 112.23 932.17 112.23C933.226 112.23 934.165 112.443 934.986 112.868C935.822 113.279 936.467 113.895 936.922 114.716L935.316 115.75C934.935 115.178 934.465 114.76 933.908 114.496C933.365 114.217 932.779 114.078 932.148 114.078C931.385 114.078 930.703 114.247 930.102 114.584C929.501 114.921 929.024 115.398 928.672 116.014C928.32 116.615 928.144 117.334 928.144 118.17C928.144 119.006 928.32 119.732 928.672 120.348C929.024 120.964 929.501 121.441 930.102 121.778C930.703 122.115 931.385 122.284 932.148 122.284C932.779 122.284 933.365 122.152 933.908 121.888C934.465 121.609 934.935 121.184 935.316 120.612L936.922 121.624C936.467 122.431 935.822 123.054 934.986 123.494C934.165 123.919 933.226 124.132 932.17 124.132ZM945.732 112.23C946.685 112.23 947.521 112.413 948.24 112.78C948.973 113.147 949.545 113.704 949.956 114.452C950.367 115.2 950.572 116.146 950.572 117.29V124H948.46V117.532C948.46 116.403 948.181 115.552 947.624 114.98C947.081 114.408 946.311 114.122 945.314 114.122C944.566 114.122 943.913 114.269 943.356 114.562C942.799 114.855 942.366 115.288 942.058 115.86C941.765 116.432 941.618 117.143 941.618 117.994V124H939.506V107.676H941.618V115.486L941.2 114.65C941.581 113.887 942.168 113.293 942.96 112.868C943.752 112.443 944.676 112.23 945.732 112.23Z" fill="white"/>
<defs>
<linearGradient id="paint0_linear_275_164" x1="883.35" y1="0" x2="883.35" y2="225" gradientUnits="userSpaceOnUse">
<stop stop-color="#FDC898"/>
<stop offset="0.453776" stop-color="#DC78C7" stop-opacity="0.59614"/>
<stop offset="1" stop-color="#B517FF" stop-opacity="0.11"/>
</linearGradient>
</defs>
</svg>
