<svg width="70" height="70" viewBox="0 0 70 70" fill="none" xmlns="http://www.w3.org/2000/svg">
<path d="M15.4001 46.2H54.6001M15.4001 23.8H54.6001M12.6001 35H57.4001M12.6001 35C12.6001 47.3712 22.6289 57.4 35.0001 57.4M12.6001 35C12.6001 22.6288 22.6289 12.6 35.0001 12.6M57.4001 35C57.4001 47.3712 47.3713 57.4 35.0001 57.4M57.4001 35C57.4001 22.6288 47.3713 12.6 35.0001 12.6M35.0001 57.4C35.0001 57.4 22.4001 51.8 22.4001 35C22.4001 18.2 35.0001 12.6 35.0001 12.6M35.0001 57.4C35.0001 57.4 47.6001 51.8 47.6001 35C47.6001 18.2 35.0001 12.6 35.0001 12.6M35.0001 57.4V12.6" stroke="#1E1E1E" stroke-width="2.5"/>
</svg>
