<svg width="30" height="30" viewBox="0 0 30 30" fill="none" xmlns="http://www.w3.org/2000/svg">
<path d="M0 15C0 6.71573 6.71573 0 15 0C23.2843 0 30 6.71573 30 15C30 23.2843 23.2843 30 15 30C6.71573 30 0 23.2843 0 15Z" fill="white"/>
<path fill-rule="evenodd" clip-rule="evenodd" d="M18.2918 6C18.4489 7.06664 18.0147 8.1116 17.442 8.85091C16.8292 9.64393 15.7731 10.2573 14.7498 10.2253C14.563 9.20405 15.0413 8.15187 15.6232 7.44456C16.2616 6.66394 17.3558 6.06505 18.2918 6ZM21.3658 21.0135C21.8934 20.205 22.0905 19.7971 22.5 18.8844C19.5214 17.7516 19.0442 13.5171 21.9919 11.8918C21.0928 10.7643 19.8293 10.1106 18.6367 10.1106C17.7773 10.1106 17.1885 10.3349 16.6532 10.5388C16.2072 10.7087 15.7983 10.8644 15.3009 10.8644C14.7635 10.8644 14.2876 10.6938 13.7892 10.5151C13.2416 10.3188 12.667 10.1127 11.9539 10.1127C10.6155 10.1127 9.19087 10.9305 8.28765 12.3286C7.01801 14.2977 7.23458 17.9994 9.29351 21.1529C10.0294 22.2815 11.0127 23.5495 12.2988 23.5608C12.8324 23.5661 13.1875 23.4069 13.5718 23.2345C14.0116 23.0373 14.4896 22.8228 15.3174 22.8184C16.15 22.8134 16.6205 23.0305 17.0545 23.2306C17.4289 23.4033 17.7761 23.5635 18.3052 23.5577C19.5923 23.5474 20.6299 22.1421 21.3658 21.0135Z" fill="#0B0B0A"/>
</svg>
