<svg width="30" height="30" viewBox="0 0 30 30" fill="none" xmlns="http://www.w3.org/2000/svg">
<path fill-rule="evenodd" clip-rule="evenodd" d="M0 14.9997C0 6.71569 6.71586 0 14.9999 0C23.2843 0 30 6.71569 30 14.9997C30 23.2847 23.2843 30 14.9999 30C6.71586 30 0 23.2847 0 14.9997ZM23.5131 13.0973C18.7508 10.2691 10.8956 10.0091 6.34948 11.3889C5.61928 11.6104 4.84728 11.1983 4.62622 10.4683C4.40499 9.73776 4.81658 8.96628 5.54713 8.74434C10.7659 7.16028 19.4412 7.46619 24.9235 10.7206C25.5804 11.1105 25.7956 11.9585 25.4064 12.6141C25.0169 13.2707 24.1681 13.4872 23.5131 13.0973ZM21.7727 17.6655C22.3141 17.9984 23.023 17.8284 23.3571 17.2862C23.69 16.7453 23.5196 16.0361 22.9782 15.7027C18.4181 12.9003 11.7475 12.1117 6.38177 13.74C5.77366 13.9253 5.43017 14.5674 5.61365 15.1764C5.79871 15.7846 6.44211 16.1279 7.0511 15.9439C11.7483 14.518 17.8026 15.2251 21.7727 17.6655ZM20.2832 21.6155C20.717 21.8808 21.2839 21.7445 21.5494 21.3091C21.8147 20.8751 21.678 20.3079 21.2438 20.0427C17.3497 17.6632 12.5224 17.1096 6.89462 18.396C6.398 18.5091 6.08856 19.0031 6.20217 19.4986C6.31508 19.994 6.80905 20.3045 7.30461 20.1909C12.4472 19.0163 16.8139 19.4951 20.2832 21.6155Z" fill="#1ED760"/>
</svg>
