<svg width="30" height="30" viewBox="0 0 30 30" fill="none" xmlns="http://www.w3.org/2000/svg">
<g clip-path="url(#clip0_2_531)">
<path d="M29.4025 7.73188C29.2329 7.09365 28.8986 6.51116 28.4332 6.0427C27.9677 5.57425 27.3874 5.23626 26.7502 5.06257C24.4048 4.43188 15.0298 4.43188 15.0298 4.43188C15.0298 4.43188 5.65479 4.43188 3.30933 5.06257C2.6722 5.23626 2.09186 5.57425 1.62639 6.0427C1.16093 6.51116 0.826667 7.09365 0.657058 7.73188C0.0297852 10.0876 0.0297852 15.0001 0.0297852 15.0001C0.0297852 15.0001 0.0297852 19.9126 0.657058 22.2682C0.826667 22.9065 1.16093 23.489 1.62639 23.9574C2.09186 24.4259 2.6722 24.7639 3.30933 24.9376C5.65479 25.5682 15.0298 25.5682 15.0298 25.5682C15.0298 25.5682 24.4048 25.5682 26.7502 24.9376C27.3874 24.7639 27.9677 24.4259 28.4332 23.9574C28.8986 23.489 29.2329 22.9065 29.4025 22.2682C30.0298 19.9126 30.0298 15.0001 30.0298 15.0001C30.0298 15.0001 30.0298 10.0876 29.4025 7.73188Z" fill="#FF0302"/>
<path d="M11.9614 19.4609V10.5393L19.8023 15.0001L11.9614 19.4609Z" fill="#FEFEFE"/>
</g>
<defs>
<clipPath id="clip0_2_531">
<rect width="30" height="30" fill="white"/>
</clipPath>
</defs>
</svg>
